<svg width="20" height="18" xmlns="http://www.w3.org/2000/svg" xmlns:xlink="http://www.w3.org/1999/xlink" xmlns:svgjs="http://svgjs.com/svgjs" viewBox="0 0.043 20 17.915" fill="#243f4d"><svg xmlns="http://www.w3.org/2000/svg" width="20" height="18" viewBox="2 1.998 18.956 16.98"><path paint-order="stroke fill markers" fill-rule="evenodd" d="M7.526 18.978c-.536 0-1.063-.21-1.461-.607a2.066 2.066 0 0 1-.453-2.26 2.068 2.068 0 0 1 1.915-1.28h.006c.55 0 1.07.214 1.46.602.393.394.609.913.609 1.467.002.84-.5 1.593-1.277 1.917-.258.108-.53.16-.799.16zm.007-2.963h-.004a.887.887 0 0 0-.628 1.518.89.89 0 1 0 .632-1.518zm8.385 2.963c-.537 0-1.064-.21-1.461-.607a2.065 2.065 0 0 1-.452-2.26 2.065 2.065 0 0 1 1.913-1.28c.546-.04 1.08.218 1.468.603.392.393.607.912.607 1.466a2.064 2.064 0 0 1-1.274 1.917c-.26.108-.532.16-.8.16zm.006-2.963h-.001c-.331.032-.685.215-.823.548a.89.89 0 1 0 .824-.548zm-11.279.163a.592.592 0 0 1-.536-.843c.579-1.24 1.627-1.973 3.054-2.15L6.108 7.792a.593.593 0 0 1 1.163-.227l1.091 5.578h9.423l1.807-6.771H6.29A4.354 4.354 0 0 1 2.007 2.68a.591.591 0 1 1 1.171-.175 3.165 3.165 0 0 0 3.115 2.682h14.07a.592.592 0 0 1 .573.745l-2.123 7.956a.594.594 0 0 1-.573.44H7.885a.044.044 0 0 0-.023 0c-1.33 0-2.205.493-2.68 1.51a.593.593 0 0 1-.537.34z"/></svg></svg>