<svg xmlns="http://www.w3.org/2000/svg" width="18" height="14.81" viewBox="0 0 18 14.81">
  <defs>
    <style>
      .cls-1 {
        fill: #436372;
        fill-rule: evenodd;
      }
    </style>
  </defs>
  <path class="cls-1" d="M1169,2970a0.415,0.415,0,0,1-.16-0.03,0.42,0.42,0,0,1-.27-0.38v-2.07h-1.28a1.262,1.262,0,0,1-1.29-1.23v-9.87a1.262,1.262,0,0,1,1.29-1.23h15.42a1.262,1.262,0,0,1,1.29,1.23v9.87a1.262,1.262,0,0,1-1.29,1.23h-10.94l-2.47,2.36A0.423,0.423,0,0,1,1169,2970Zm-1.71-13.99a0.423,0.423,0,0,0-.43.41v9.87a0.423,0.423,0,0,0,.43.41H1169a0.417,0.417,0,0,1,.43.41v1.49l1.86-1.78a0.407,0.407,0,0,1,.3-0.12h11.12a0.423,0.423,0,0,0,.43-0.41v-9.87a0.423,0.423,0,0,0-.43-0.41h-15.42Zm4.77,5.34a0.646,0.646,0,1,1-.65-0.61A0.63,0.63,0,0,1,1172.06,2961.35Zm3.58,0a0.64,0.64,0,0,1-1.28,0,0.619,0.619,0,0,1,.64-0.61A0.626,0.626,0,0,1,1175.64,2961.35Zm3.35,0a0.646,0.646,0,1,1-.65-0.61A0.63,0.63,0,0,1,1178.99,2961.35Z" transform="translate(-1166 -2955.19)"/>
</svg>
