<svg xmlns="http://www.w3.org/2000/svg" width="14.31" height="11.62" viewBox="0 0 14.31 11.62">
  <defs>
    <style>
      .cls-1 {
        fill: #a1a1a1;
        fill-rule: evenodd;
      }
    </style>
  </defs>
  <path id="Path_2" data-name="Path 2" class="cls-1" d="M1109.69,1902.28c-0.11.16-.21,0.3-0.33,0.45a5.7,5.7,0,0,1-1.07,1.01l-0.05.09a8.22,8.22,0,0,1-.07,1.31,8.818,8.818,0,0,1-.77,2.61,8.712,8.712,0,0,1-1.6,2.3,7.864,7.864,0,0,1-4.05,2.25,8.967,8.967,0,0,1-1.64.2h-0.26a8.172,8.172,0,0,1-4.42-1.27l-0.07-.04a5.322,5.322,0,0,0,.69.04,6.049,6.049,0,0,0,2.25-.44,5.834,5.834,0,0,0,1.4-.82,2.9,2.9,0,0,1-2.71-2.03,3.287,3.287,0,0,0,.54.05,2.82,2.82,0,0,0,.71-0.09l0.05-.02a2.9,2.9,0,0,1-2.32-2.9,2.914,2.914,0,0,0,1.31.35,2.914,2.914,0,0,1-1.2-1.78,2.877,2.877,0,0,1,.34-2.12,8.311,8.311,0,0,0,6.02,3.07c-0.02-.12-0.03-0.22-0.05-0.33a2.8,2.8,0,0,1,.45-1.91,2.853,2.853,0,0,1,1.99-1.33,3.439,3.439,0,0,1,.54-0.04,2.833,2.833,0,0,1,2.03.86,0.139,0.139,0,0,0,.1.05,0.09,0.09,0,0,0,.05-0.01,5.547,5.547,0,0,0,1.71-.65l0.04-.02a2.919,2.919,0,0,1-1.25,1.6A5.859,5.859,0,0,0,1109.69,1902.28Z" transform="translate(-1095.38 -1900.88)"/>
</svg>
