<svg xmlns="http://www.w3.org/2000/svg" width="8.13" height="15.43" viewBox="0 0 8.13 15.43">
  <defs>
    <style>
      .cls-1 {
        fill: #a1a1a1;
        fill-rule: evenodd;
      }
    </style>
  </defs>
  <path id="Path_1" data-name="Path 1" class="cls-1" d="M1069.19,1899.12c0.41,0,.83.03,1.24,0.05,0.27,0.01.54,0.04,0.79,0.07l-0.02,2.49H1071c-0.27,0-.54-0.01-0.82-0.01-0.2,0-.4.01-0.61,0.01a1.041,1.041,0,0,0-1.18,1.09c-0.02.6-.03,1.9-0.03,1.97,0.03,0,.68.01,1.34,0.01,0.32,0,.64,0,0.87-0.01h0.53c-0.13.96-.26,1.87-0.39,2.8h-2.35l-0.06,6.97h-2.89l0.06-6.99h-2.37l0.02-2.77h2.38v-0.21c0.01-.56,0-1.12.02-1.68a7.581,7.581,0,0,1,.09-1.06,3.145,3.145,0,0,1,1.27-2.08,3.6,3.6,0,0,1,2.08-.64C1069.04,1899.13,1069.11,1899.12,1069.19,1899.12Z" transform="translate(-1063.09 -1899.13)"/>
</svg>
