<svg width="96" height="96" xmlns="http://www.w3.org/2000/svg">

 <g>
  <title>background</title>
  <rect fill="none" id="canvas_background" height="402" width="582" y="-1" x="-1"/>
 </g>
 <g>
  <title>Layer 1</title>
  <path fill="#516278" id="svg_1" d="m12,52l62.344,0l-21.456,21.456c-1.562,1.562 -1.562,4.095 -0.001,5.656c1.562,1.562 4.096,1.562 5.658,0l28.283,-28.284l0,0c0.186,-0.186 0.352,-0.391 0.498,-0.609c0.067,-0.101 0.114,-0.21 0.172,-0.315c0.066,-0.124 0.142,-0.242 0.195,-0.373c0.057,-0.135 0.089,-0.275 0.129,-0.415c0.033,-0.111 0.076,-0.217 0.099,-0.331c0.052,-0.26 0.079,-0.522 0.079,-0.785l0,0c0,-0.003 -0.001,-0.006 -0.001,-0.009c-0.001,-0.259 -0.027,-0.519 -0.078,-0.774c-0.024,-0.12 -0.069,-0.231 -0.104,-0.349c-0.039,-0.133 -0.069,-0.268 -0.123,-0.397c-0.058,-0.139 -0.136,-0.265 -0.208,-0.396c-0.054,-0.098 -0.097,-0.198 -0.159,-0.292c-0.146,-0.221 -0.314,-0.427 -0.501,-0.614l-28.282,-28.281c-1.562,-1.562 -4.095,-1.562 -5.657,-0.001c-1.562,1.562 -1.562,4.095 0,5.658l21.456,21.455l-62.343,0c-2.209,0 -4,1.791 -4,4c0,2.209 1.791,4 4,4z"/>
 </g>
</svg>