<svg xmlns="http://www.w3.org/2000/svg" width="18" height="12.37" viewBox="0 0 18 12.37">
  <defs>
    <style>
      .cls-1 {
        fill: #436372;
        fill-rule: evenodd;
      }
    </style>
  </defs>
  <path class="cls-1" d="M1182.71,2896.99h-15.42a1.262,1.262,0,0,1-1.29-1.23v-9.9a1.27,1.27,0,0,1,1.29-1.24h15.42a1.27,1.27,0,0,1,1.29,1.24v9.9A1.262,1.262,0,0,1,1182.71,2896.99Zm-15.42-11.54a0.417,0.417,0,0,0-.43.41v9.9a0.423,0.423,0,0,0,.43.41h15.42a0.423,0.423,0,0,0,.43-0.41v-9.9a0.417,0.417,0,0,0-.43-0.41h-15.42Zm7.71,5.59a1.319,1.319,0,0,1-.74-0.23l-7.78-5.24a0.4,0.4,0,0,1-.1-0.57,0.428,0.428,0,0,1,.59-0.1l7.78,5.24a0.454,0.454,0,0,0,.5,0l7.78-5.24a0.428,0.428,0,0,1,.59.1,0.4,0.4,0,0,1-.1.57l-7.78,5.24A1.319,1.319,0,0,1,1175,2891.04Zm8.32,5.71a0.423,0.423,0,0,1-.3-0.12l-6.62-6.36a0.423,0.423,0,0,1,0-.59,0.448,0.448,0,0,1,.61,0l6.61,6.37a0.394,0.394,0,0,1,0,.58A0.423,0.423,0,0,1,1183.32,2896.75Zm-16.64,0a0.423,0.423,0,0,1-.3-0.12,0.394,0.394,0,0,1,0-.58l6.61-6.37a0.448,0.448,0,0,1,.61,0,0.423,0.423,0,0,1,0,.59l-6.62,6.36A0.423,0.423,0,0,1,1166.68,2896.75Z" transform="translate(-1166 -2884.63)"/>
</svg>
