<svg xmlns="http://www.w3.org/2000/svg" width="18.03" height="11.41" viewBox="0 0 18.03 11.41">
  <defs>
    <style>
      .cls-1 {
        fill: #a1a1a1;
        fill-rule: evenodd;
      }
    </style>
  </defs>
  <path id="Union_1" data-name="Union 1" class="cls-1" d="M1170.27,1912.73a5.653,5.653,0,0,1-5.24-4.49,5.314,5.314,0,0,1-.11-1.54,5.573,5.573,0,0,1,1.29-3.25,5.683,5.683,0,0,1,3.07-1.96,4.271,4.271,0,0,1,.94-0.14c0.18-.01.36-0.02,0.55-0.02a5.311,5.311,0,0,1,2.69.74,6.276,6.276,0,0,1,1.01.74c-0.57.56-1.11,1.11-1.67,1.66a3.053,3.053,0,0,0-1.67-.81,4.051,4.051,0,0,0-.48-0.04,3.429,3.429,0,0,0-3.29,2.67,2.977,2.977,0,0,0-.08,1.03,3.429,3.429,0,0,0,2.33,2.97,3.365,3.365,0,0,0,1,.15c0.08,0,.15-0.01.23-0.01a3.427,3.427,0,0,0,1.67-.53,2.65,2.65,0,0,0,1.13-1.72h-3.05c0-.08.01-1.5,0.01-2.2l0.01-.09h5.36a6.171,6.171,0,0,1-1.01,4.81,5.029,5.029,0,0,1-2.82,1.84,6.2,6.2,0,0,1-1.54.2C1170.49,1912.74,1170.38,1912.73,1170.27,1912.73Zm10.59-3.22h-1.51v-0.06l0.02-1.93h-1.99v-0.06l0.01-1.44v-0.06h1.99l0.01-1.93,0.01-.06h1.55v0.06l-0.01,1.93h1.99v0.06l-0.01,1.44v0.06h-1.99l-0.02,1.93v0.06h-0.05Z" transform="translate(-1164.91 -1901.34)"/>
</svg>
