<svg xmlns="http://www.w3.org/2000/svg" width="13.63" height="13.66" viewBox="0 0 13.63 13.66">
  <defs>
    <style>
      .cls-1 {
        fill: #a1a1a1;
        fill-rule: evenodd;
      }
    </style>
  </defs>
  <path id="Union_2" data-name="Union 2" class="cls-1" d="M1133.34,1913.46a3.431,3.431,0,0,1-2.72-2.98,38.588,38.588,0,0,1,.13-7.67,3.483,3.483,0,0,1,2.98-2.65,27.381,27.381,0,0,1,3.42-.15c1.28,0,2.56.03,3.33,0.07a3.78,3.78,0,0,1,2.5,1.02,3.638,3.638,0,0,1,1.09,2.33,43.2,43.2,0,0,1-.15,7.35,3.485,3.485,0,0,1-3.02,2.73,32.586,32.586,0,0,1-3.76.15A23.5,23.5,0,0,1,1133.34,1913.46Zm0.73-12.12a2.349,2.349,0,0,0-2.18,2.06,45.652,45.652,0,0,0-.05,6.9,2.224,2.224,0,0,0,1.69,1.93,20.971,20.971,0,0,0,3.67.2c1.43,0,2.84-.05,3.37-0.1a2.341,2.341,0,0,0,2.18-2.07,48.648,48.648,0,0,0,.09-6.71,2.3,2.3,0,0,0-2.05-2.18,30.906,30.906,0,0,0-3.41-.13C1136.02,1901.24,1134.66,1901.28,1134.07,1901.34Zm-0.25,5.5a3.517,3.517,0,0,1,3.53-3.5,3.459,3.459,0,0,1,3.47,3.5,3.53,3.53,0,0,1-3.53,3.5A3.466,3.466,0,0,1,1133.82,1906.84Zm1.23-.03a2.252,2.252,0,0,0,2.23,2.29h0.02a2.284,2.284,0,0,0,2.28-2.24,2.237,2.237,0,0,0-2.22-2.29h-0.02A2.293,2.293,0,0,0,1135.05,1906.81Zm5.12-3.61a0.824,0.824,0,0,1,.82-0.82H1141a0.815,0.815,0,0,1,.81.82,0.826,0.826,0,0,1-.83.82A0.815,0.815,0,0,1,1140.17,1903.2Z" transform="translate(-1130.5 -1900)"/>
</svg>
