<svg xmlns="http://www.w3.org/2000/svg" width="22" height="20" viewBox="0 0 22 20">
  <defs>
    <style>
      .cls-1 {
        fill: #fff;
        fill-rule: evenodd;
      }
    </style>
  </defs>
  <path id="card-basket" data-name="Forma 1" class="cls-1" d="M800.814,1564.63h2.333l3.323,12.04a0.812,0.812,0,0,0,.787.59h10.214a0.821,0.821,0,0,0,.746-0.48l3.717-8.56a0.836,0.836,0,0,0-.068-0.78,0.813,0.813,0,0,0-.678-0.37H809.9a0.82,0.82,0,0,0,0,1.64H819.94l-3.011,6.92h-9.062l-3.323-12.03a0.808,0.808,0,0,0-.787-0.6h-2.943A0.815,0.815,0,0,0,800.814,1564.63Zm5.67,18.37a1.85,1.85,0,1,0-1.845-1.85A1.85,1.85,0,0,0,806.484,1583Zm11.53,0h0.135A1.907,1.907,0,1,0,818.014,1583Z" transform="translate(-800 -1563)"/>
</svg>
