<svg width="19" height="18" xmlns="http://www.w3.org/2000/svg" xmlns:xlink="http://www.w3.org/1999/xlink" xmlns:svgjs="http://svgjs.com/svgjs" viewBox="0 0.742 19 16.515" fill="#243f4d"><svg xmlns="http://www.w3.org/2000/svg" width="19" height="18" viewBox="1.983 1.721 17.859 15.523"><path paint-order="stroke fill markers" fill-rule="evenodd" d="M10.913 17.244a.707.707 0 0 1-.28-.056c-.353-.15-8.65-3.75-8.65-10.76.091-2.65 2.207-4.707 4.818-4.707 1.743 0 3.266.918 4.112 2.31a4.796 4.796 0 0 1 4.112-2.31c2.61 0 4.725 2.058 4.817 4.684 0 7.034-8.297 10.634-8.65 10.783a.71.71 0 0 1-.28.056zM6.8 3.106c-1.847 0-3.343 1.47-3.408 3.346 0 5.408 6.125 8.663 7.52 9.335 1.395-.672 7.52-3.93 7.52-9.358-.065-1.853-1.563-3.323-3.408-3.323s-3.342 1.47-3.408 3.346a.7.7 0 0 1-.704.67.7.7 0 0 1-.705-.67c-.064-1.876-1.561-3.346-3.407-3.346z"/></svg></svg>