<svg width="21" height="22" xmlns="http://www.w3.org/2000/svg" xmlns:xlink="http://www.w3.org/1999/xlink" xmlns:svgjs="http://svgjs.com/svgjs" viewBox="0 0.5 21 21" fill="#fff"><svg xmlns="http://www.w3.org/2000/svg" width="21" height="22" viewBox="2 1.589 20.029 20.029"><path paint-order="stroke fill markers" fill-rule="evenodd" d="M4.146 5.88A2.144 2.144 0 0 1 2 3.736c0-1.187.96-2.146 2.146-2.146 1.187 0 2.146.959 2.146 2.146 0 1.186-.96 2.146-2.146 2.146zm0 7.87A2.145 2.145 0 0 1 2 11.603c0-1.186.96-2.145 2.146-2.145 1.187 0 2.146.959 2.146 2.145 0 1.187-.96 2.147-2.146 2.147zm0 7.868A2.144 2.144 0 0 1 2 19.472c0-1.187.96-2.146 2.146-2.146 1.187 0 2.146.96 2.146 2.146 0 1.187-.96 2.146-2.146 2.146zM12.014 5.88a2.144 2.144 0 0 1-2.146-2.146c0-1.187.96-2.146 2.146-2.146 1.187 0 2.146.959 2.146 2.146 0 1.186-.959 2.146-2.146 2.146zm0 7.869a2.145 2.145 0 0 1-2.146-2.147c0-1.186.96-2.145 2.146-2.145 1.187 0 2.146.959 2.146 2.145 0 1.187-.959 2.147-2.146 2.147zm0 7.868a2.144 2.144 0 0 1-2.146-2.146c0-1.187.96-2.146 2.146-2.146 1.187 0 2.146.96 2.146 2.146 0 1.187-.959 2.146-2.146 2.146zM19.883 5.88a2.144 2.144 0 0 1-2.146-2.146c0-1.187.96-2.146 2.146-2.146 1.187 0 2.146.959 2.146 2.146 0 1.186-.96 2.146-2.146 2.146zm0 7.869a2.145 2.145 0 0 1-2.146-2.147c0-1.186.96-2.145 2.146-2.145 1.187 0 2.146.959 2.146 2.145 0 1.187-.96 2.147-2.146 2.147zm0 7.868a2.144 2.144 0 0 1-2.146-2.146c0-1.187.96-2.146 2.146-2.146 1.187 0 2.146.96 2.146 2.146 0 1.187-.96 2.146-2.146 2.146z"/></svg></svg>