<svg width="17" height="17" xmlns="http://www.w3.org/2000/svg" xmlns:xlink="http://www.w3.org/1999/xlink" xmlns:svgjs="http://svgjs.com/svgjs" fill="#243f4d"><svg xmlns="http://www.w3.org/2000/svg" width="17" height="17" viewBox="1.705 1.996 15.296 15.296"><path paint-order="stroke fill markers" fill-rule="evenodd" d="M4.702 8.076c.356-.065.68.13.746.484.096.582.355 1.067.78 1.49.42.388.941.677 1.493.776.325.066.552.39.487.743a.643.643 0 0 1-.714.516 4.2 4.2 0 0 1-2.143-1.13 4.164 4.164 0 0 1-1.136-2.137c-.065-.354.128-.676.487-.742zm3.278-6.08c3.465 0 6.279 2.8 6.279 6.257 0 .93-.203 1.812-.568 2.604l2.336 2.036c1.703 1.747.746 3.266.294 3.717-.422.454-1.994 1.415-3.73-.292l-2.06-2.35c-.78.345-1.64.539-2.548.539-3.468 0-6.278-2.802-6.278-6.257 0-3.456 2.807-6.254 6.275-6.254zm5.546 13.517c.293.324 1.126.867 1.88.226.21-.176.634-1.068-.227-1.873l-2.162-1.88a6.269 6.269 0 0 1-1.363 1.34l1.872 2.187zM7.98 13.201c2.742 0 4.966-2.216 4.966-4.948S10.722 3.305 7.98 3.305 3.015 5.521 3.015 8.253s2.22 4.948 4.965 4.948z"/></svg></svg>