<svg xmlns="http://www.w3.org/2000/svg" width="22" height="20"><path fill="#29282d" d="M17.436 19.997c-1.513 0-2.744-1.221-2.744-2.724a2.737 2.737 0 012.744-2.725 2.737 2.737 0 012.743 2.725 2.736 2.736 0 01-2.743 2.724zm0-3.814c-.606 0-1.098.49-1.098 1.09 0 .6.492 1.09 1.098 1.09.605 0 1.097-.49 1.097-1.09 0-.6-.492-1.09-1.097-1.09zm1.756-2.806H6.379a.822.822 0 01-.8-.628L2.902 1.634H.837A.82.82 0 01.014.817a.82.82 0 01.823-.818h2.716c.38 0 .712.26.8.628l.741 3.077h16.1c.254 0 .493.116.649.314a.815.815 0 01.15.7l-2.002 8.038a.822.822 0 01-.8.62zM7.029 11.742h11.519l1.595-6.402H5.488zm.447 8.255a2.736 2.736 0 01-2.743-2.724c0-1.502 1.23-2.725 2.743-2.725s2.744 1.223 2.744 2.725c0 1.503-1.23 2.724-2.744 2.724zm0-3.814c-.605 0-1.097.49-1.097 1.09 0 .6.492 1.09 1.097 1.09.606 0 1.098-.49 1.098-1.09 0-.6-.492-1.09-1.098-1.09z"/></svg>