<svg xmlns="http://www.w3.org/2000/svg" width="20" height="20"><path fill="#29282d" d="M20 19.998h-1.563c0-4.652-3.785-8.436-8.437-8.436-4.653 0-8.438 3.784-8.438 8.436H0c0-2.67 1.04-5.181 2.929-7.07a9.958 9.958 0 013.8-2.384 5.779 5.779 0 01-2.51-4.764A5.788 5.788 0 019.999 0a5.788 5.788 0 015.782 5.781c0 1.975-.995 3.72-2.51 4.764a9.958 9.958 0 013.8 2.384A9.935 9.935 0 0120 19.998zm-10-10a4.224 4.224 0 004.219-4.218 4.223 4.223 0 00-4.22-4.219 4.223 4.223 0 00-4.218 4.22A4.224 4.224 0 0010 9.998z"/></svg>