<svg xmlns="http://www.w3.org/2000/svg" width="20" height="20"><path fill="#29282d" d="M17.777 11.803a228.502 228.502 0 01-4.216 4.966c-2.682 3.056-3.065 3.225-3.449 3.225h-.17c-.383 0-.809-.169-3.492-3.183-1.405-1.57-3.108-3.565-4.215-4.965C-.235 8.748-.192 6.2.276 4.63.957 2.254 2.959.81 4.449.26c1.703-.553 3.747 0 5.578 1.57C11.858.217 13.902-.378 15.605.217c1.49.508 3.492 1.951 4.173 4.37.469 1.57.469 4.118-2.001 7.215zm.426-6.706c-.511-1.782-2.002-2.843-3.109-3.268-1.234-.424-2.895.213-4.428 1.655-.043.086-.128.128-.213.17a.846.846 0 01-1.065-.126C7.856 2.042 6.195 1.405 4.96 1.873c-1.107.381-2.598 1.442-3.108 3.224-.511 1.74.085 3.693 1.703 5.687 1.959 2.462 5.322 6.324 6.472 7.386 1.15-1.062 4.514-4.924 6.473-7.386 1.618-1.994 2.214-3.989 1.703-5.686z"/></svg>