<?xml version="1.0" encoding="utf-8"?><!DOCTYPE svg  PUBLIC '-//W3C//DTD SVG 1.1//EN'  'http://www.w3.org/Graphics/SVG/1.1/DTD/svg11.dtd'><svg viewBox="0 0 1792 1792" xmlns="http://www.w3.org/2000/svg" xmlns:xlink="http://www.w3.org/1999/xlink"><style>:root>svg{display:none}:root>svg:target{display:block}</style><svg viewBox="0 0 41.79 40.406" id="about-awards" xmlns="http://www.w3.org/2000/svg"><defs><style>.aacls-1{fill:#a3bbc8;fill-rule:evenodd}</style></defs><path class="aacls-1" d="M12.56 31.95a8.516 8.516 0 01.83-3.671L.17 7.833a.919.919 0 01.11-1.139L6.6.276A.9.9 0 017.23.01h27.35a.882.882 0 01.63.266l6.32 6.418a.906.906 0 01.11 1.139L28.42 28.28a8.508 8.508 0 01.83 3.67 8.346 8.346 0 11-16.69 0zm1.79 0a6.556 6.556 0 106.56-6.661 6.617 6.617 0 00-6.56 6.661zm8.55-8.23a8.324 8.324 0 014.47 2.884L39.24 8.242H32.9zm-8.46 2.883a8.354 8.354 0 014.48-2.883L8.91 8.242H2.57zm6.45-3.127h.03l9.85-15.234H11.04zM3.07 6.429h35.67l-4.53-4.606H7.6zm17.25 28.919v-4.9h-.53a.907.907 0 010-1.814h1.42a.9.9 0 01.89.908v5.808a.89.89 0 11-1.78-.007z"/></svg><svg id="about-delivered" data-name="Группа 2" viewBox="0 0 72.375 51.38" xmlns="http://www.w3.org/2000/svg"><defs><style>.abcls-1{fill:#a3bbc8}.abcls-2{fill:#243f4d;fill-rule:evenodd}</style></defs><circle class="abcls-1" cx="55.5" cy="34.505" r="16.875"/><path class="abcls-2" d="M829.52 1297.96l-1.658-6.55a1 1 0 00.793-.97v-1.06a4.192 4.192 0 00-4.208-4.16H816.9v-2.17a2.063 2.063 0 00-2.071-2.05h-38.483a2.063 2.063 0 00-2.071 2.05V1301a1 1 0 002 0v-17.95a.068.068 0 01.066-.07h38.481a.068.068 0 01.066.07V1301a1 1 0 002 0v-1.12h11.826a3.27 3.27 0 013.114 2.24h-3.116a1 1 0 00-1 .99v2.11a3.131 3.131 0 003.14 3.11H832v4.35h-2.621a6.372 6.372 0 00-12 0h-.479v-7.46a1 1 0 00-2 0v7.46h-20.8a6.372 6.372 0 00-12 0h-5.761a.066.066 0 01-.066-.06v-2.18h4.342a.99.99 0 100-1.98H771a.99.99 0 100 1.98h3.274v2.18a2.061 2.061 0 002.071 2.04h5.413v.07a6.347 6.347 0 0012.693 0v-.07h22.584v.07a6.347 6.347 0 0012.693 0v-.07H833a.994.994 0 001-.99v-10.56a5.235 5.235 0 00-4.48-5.15zm-12.62-10.76h7.549a2.2 2.2 0 012.2 2.18v.07H816.9v-2.25zm0 10.7v-6.47h8.9l1.637 6.47H816.9zm-28.8 21.12a4.29 4.29 0 114.343-4.29 4.325 4.325 0 01-4.343 4.29zm35.274 0a4.29 4.29 0 114.342-4.29 4.325 4.325 0 01-4.338 4.29zm8.626-12.67h-1.14a1.137 1.137 0 01-1.136-1.13v-1.12H832v2.25zm-43.892 6.33a2.05 2.05 0 102.071 2.05 2.063 2.063 0 00-2.079-2.05zm35.274 0a2.05 2.05 0 102.071 2.05 2.063 2.063 0 00-2.075-2.05zm-11.758-4.22h-14.969a.99.99 0 100 1.98h14.965a.99.99 0 100-1.98zm-25.653-4.23H773.14a.99.99 0 100 1.98h12.827a.99.99 0 100-1.98zm18.879-13.44a1.023 1.023 0 00-1.417 0l-8.911 8.81-4.636-4.58a1 1 0 00-1.417 0 .98.98 0 000 1.4l5.344 5.28a1.01 1.01 0 001.417 0l9.62-9.51a.98.98 0 00-.004-1.4z" transform="translate(-770 -1281)"/></svg><svg viewBox="0 0 22.66 14.38" id="about-google" xmlns="http://www.w3.org/2000/svg"><defs><style>.accls-1{fill:#888;fill-rule:evenodd}</style></defs><path id="acUnion_6" data-name="Union 6" class="accls-1" d="M1052.75 1960.35a7.121 7.121 0 01-6.59-5.65 6.6 6.6 0 01-.14-1.93 7.277 7.277 0 015.49-6.56 5.282 5.282 0 011.18-.19c.23-.01.46-.02.69-.02a6.786 6.786 0 013.4.93 9.386 9.386 0 011.27.93c-.72.71-1.41 1.4-2.11 2.09a3.914 3.914 0 00-2.1-1.02 4.259 4.259 0 00-.61-.04 4.307 4.307 0 00-4.14 3.35 3.817 3.817 0 00-.1 1.3 4.3 4.3 0 002.94 3.74 4.35 4.35 0 001.25.19c.1 0 .2-.01.3-.01a4.2 4.2 0 002.09-.67 3.314 3.314 0 001.43-2.17h-3.85c0-.09.02-1.89.02-2.76l.01-.12h6.76a7.773 7.773 0 01-1.28 6.05 6.273 6.273 0 01-3.55 2.32 7.539 7.539 0 01-1.94.25c-.14 0-.28 0-.42-.01zm13.33-4.05h-1.89v-.07l.02-2.43h-2.51v-.08l.02-1.82v-.07h2.5l.02-2.43v-.07h1.96v.07l-.02 2.43h2.51v.07l-.01 1.82v.08h-2.51l-.02 2.43v.07h-.07z" transform="translate(-1046.03 -1946)"/></svg><svg viewBox="0 0 17.19 17.19" id="about-insta" xmlns="http://www.w3.org/2000/svg"><defs><style>.adcls-1{fill:#888;fill-rule:evenodd}</style></defs><path id="adUnion_5" data-name="Union 5" class="adcls-1" d="M1004.59 1961.94a4.322 4.322 0 01-3.43-3.75c-.23-1.45-.25-8.19.17-9.65a4.387 4.387 0 013.75-3.35 34.173 34.173 0 014.31-.19c1.6 0 3.22.04 4.19.1a4.724 4.724 0 013.14 1.28 4.517 4.517 0 011.38 2.94c.12 1.35.21 7.74-.19 9.24a4.411 4.411 0 01-3.8 3.44 42.333 42.333 0 01-4.74.19 29.143 29.143 0 01-4.78-.25zm.92-15.26a2.958 2.958 0 00-2.75 2.59 57.587 57.587 0 00-.06 8.69 2.8 2.8 0 002.12 2.43 27.569 27.569 0 004.63.25c1.8 0 3.57-.06 4.24-.13a2.941 2.941 0 002.75-2.6 61.315 61.315 0 00.11-8.45 2.9 2.9 0 00-2.58-2.74 40.212 40.212 0 00-4.3-.16c-1.71 0-3.41.04-4.16.12zm-.32 6.92a4.445 4.445 0 014.45-4.41 4.37 4.37 0 014.37 4.41 4.458 4.458 0 01-4.45 4.41 4.37 4.37 0 01-4.37-4.41zm1.55-.03a2.834 2.834 0 002.81 2.88h.02a2.882 2.882 0 002.88-2.82 2.82 2.82 0 00-2.8-2.88h-.03a2.881 2.881 0 00-2.88 2.82zm6.45-4.55a1.029 1.029 0 011.03-1.03h.01a1.016 1.016 0 011.02 1.04 1.035 1.035 0 01-1.04 1.02 1.014 1.014 0 01-1.02-1.03z" transform="translate(-1001 -1945)"/></svg><svg viewBox="0 0 36.41 37.719" id="about-projects" xmlns="http://www.w3.org/2000/svg"><defs><style>.aecls-1{fill:#a3bbc8;fill-rule:evenodd}</style></defs><path class="aecls-1" d="M1.975 37.71A1.984 1.984 0 010 35.719V8.441a.915.915 0 01.264-.643L7.74.256a.9.9 0 01.638-.267h19.09a1.98 1.98 0 011.97 1.991v2.87a.9.9 0 11-1.8 0V1.98a.172.172 0 00-.17-.17H9.278v5.552a1.98 1.98 0 01-1.97 1.99h-5.5v26.367a.17.17 0 00.168.17h25.5a.173.173 0 00.17-.17v-13.9a.9.9 0 111.8 0v13.9a1.98 1.98 0 01-1.97 1.991h-25.5zM3.083 7.532H7.31a.17.17 0 00.168-.17V3.097zM7.059 31.24a.91.91 0 010-1.82H11l1.39-5.066a.9.9 0 01.23-.4l.02-.015H7.059a.91.91 0 010-1.82h7.381l5.43-5.48H7.059a.911.911 0 010-1.821H21.68l8.43-8.5a3.038 3.038 0 014.32 0l1.06 1.071a3.1 3.1 0 010 4.356L18 29.382a.889.889 0 01-.39.234l-5.7 1.6c-.03.007-.23.029-.23.029H7.059zm5.921-2.218l2.65-.744-1.91-1.933zm1.56-4.424l2.83 2.853L31.8 12.889l-2.83-2.852zm16.84-17L30.25 8.75l2.83 2.853 1.13-1.147a1.264 1.264 0 000-1.782l-1.06-1.071a1.225 1.225 0 00-.88-.369 1.265 1.265 0 00-.89.368z"/></svg><svg id="about-rate" data-name="Группа 1" viewBox="0 0 73.375 59.38" xmlns="http://www.w3.org/2000/svg"><defs><style>.afcls-1{fill:#a3bbc8}.afcls-2{fill:#243f4d;fill-rule:evenodd}</style></defs><circle class="afcls-1" cx="56.5" cy="42.505" r="16.875"/><path class="afcls-2" d="M530.635 1273h-57.27a3.368 3.368 0 00-3.365 3.36v41.14a3.368 3.368 0 003.365 3.36h21.691l-.877 7h-3.633a1.07 1.07 0 100 2.14h22.908a1.07 1.07 0 100-2.14h-3.634l-.877-7h21.692a3.368 3.368 0 003.365-3.36v-41.14a3.368 3.368 0 00-3.365-3.36zm-34.291 54.86l.877-7h9.558l.877 7h-11.312zm35.508-10.36a1.213 1.213 0 01-1.217 1.21h-57.27a1.212 1.212 0 01-1.217-1.21v-41.14a1.221 1.221 0 011.217-1.22h57.27a1.222 1.222 0 011.217 1.22v41.14zm-11.525-39.93h-44.672a1.072 1.072 0 00-1.073 1.07v35.43a1.072 1.072 0 001.073 1.07h3.437a1.07 1.07 0 100-2.14h-2.363v-33.29h43.6a1.07 1.07 0 10-.002-2.14zm8.017 0h-3.436a1.07 1.07 0 100 2.14h2.363V1313h-43.6a1.07 1.07 0 100 2.14h44.671a1.073 1.073 0 001.074-1.07v-35.43a1.073 1.073 0 00-1.072-1.07zm-6.872 5.72a3.352 3.352 0 00-2.97 4.93l-8.6 9.09a3.322 3.322 0 00-1.408-.31 3.361 3.361 0 00-2.314.92l-7.348-3.88a3.364 3.364 0 10-6.684-.54 3.352 3.352 0 00.328 1.45l-8.406 8.14a3.331 3.331 0 00-1.539-.38 3.36 3.36 0 103.036 1.91l8.406-8.14a3.328 3.328 0 003.852-.55l7.348 3.88a3.54 3.54 0 00-.044.55 3.365 3.365 0 106.334-1.58l8.6-9.09a3.316 3.316 0 001.408.31 3.355 3.355 0 10.001-6.71zm-38.944 24a1.215 1.215 0 111.217-1.22 1.222 1.222 0 01-1.217 1.22zm12.981-12.58a1.21 1.21 0 111.217-1.21 1.213 1.213 0 01-1.217 1.21zm12.982 6.86a1.215 1.215 0 111.217-1.21 1.212 1.212 0 01-1.217 1.21zm12.981-13.71a1.215 1.215 0 111.217-1.22 1.222 1.222 0 01-1.217 1.22zm0 4.57a1.073 1.073 0 00-1.074 1.07v16a1.074 1.074 0 002.148 0v-16a1.073 1.073 0 00-1.074-1.07zm-25.963 6.86a1.066 1.066 0 00-1.074 1.07v9.14a1.074 1.074 0 002.148 0v-9.14a1.066 1.066 0 00-1.074-1.07zm12.982 6.85a1.073 1.073 0 00-1.074 1.07v2.29a1.074 1.074 0 002.147 0v-2.29a1.072 1.072 0 00-1.073-1.07z" transform="translate(-470 -1273)"/></svg><svg viewBox="0 0 43.13 39.094" id="about-revenue" xmlns="http://www.w3.org/2000/svg"><defs><style>.agcls-1{fill:#a3bbc8;fill-rule:evenodd}</style></defs><path class="agcls-1" d="M37.87 9.304V2.178A2.174 2.174 0 0036.82.291 2.076 2.076 0 0034.69.27a48.669 48.669 0 01-20.7 6.383l-6.68.034a3.286 3.286 0 00-3.23 2.949H2.72A2.749 2.749 0 00.01 12.41v6.1a2.748 2.748 0 002.71 2.774h1.36a3.32 3.32 0 001.91 2.664l4.85 13.723a2.118 2.118 0 001.98 1.428h4.86a2.1 2.1 0 001.73-.925 2.221 2.221 0 00.25-1.986l-4.15-11.785a48.668 48.668 0 0119.18 6.244 2.08 2.08 0 002.13-.021 2.174 2.174 0 001.05-1.887v-7.126a6.228 6.228 0 000-12.309zM4.05 19.14H2.72a.622.622 0 01-.62-.634v-6.1a.623.623 0 01.62-.634h1.33v7.364zm2.78 2.844a1.2 1.2 0 01-.69-1.1V10.03a1.185 1.185 0 011.17-1.2h5.67v13.262H7.23a1.027 1.027 0 01-.4-.108zm10.88 14.93a.037.037 0 01-.01.028c-.01.013-.01.013-.02.013h-4.86a.049.049 0 01-.03-.018L8.31 24.229h4.92zm18.08-8.179a.037.037 0 01-.03.041.04.04 0 01-.05 0 50.66 50.66 0 00-20.65-6.57v-13.5a50.692 50.692 0 0020.65-6.571.04.04 0 01.05 0 .037.037 0 01.03.041v26.557zm2.08-9.292v-7.974a4.089 4.089 0 010 7.974z"/></svg><svg id="about-store" data-name="Группа 4" viewBox="0 0 60.32 63.94" xmlns="http://www.w3.org/2000/svg"><defs><style>.ahcls-1{fill:#a3bbc8}.ahcls-2{fill:#243f4d;fill-rule:evenodd}</style></defs><circle class="ahcls-1" cx="43.445" cy="46.445" r="16.875"/><path class="ahcls-2" d="M1413.15 1277.01a17.9 17.9 0 00-20.89 3.38 18.376 18.376 0 00-1.5 24.05 1.029 1.029 0 00.79.39.981.981 0 00.62-.22 1.011 1.011 0 00.17-1.41 16.324 16.324 0 011.33-21.38 15.907 15.907 0 0118.58-3.01 1 1 0 001.34-.44 1.018 1.018 0 00-.44-1.36zm7.97 8.05a.99.99 0 00-1.34-.44 1.007 1.007 0 00-.44 1.35 16.279 16.279 0 01-2.98 18.75 15.948 15.948 0 01-21.18 1.34.992.992 0 00-1.4.18 1.011 1.011 0 00.17 1.41 17.914 17.914 0 0023.82-1.5 18.316 18.316 0 003.35-21.09zm-2.58-3.84c-.24-.28-.5-.56-.77-.83s-.54-.53-.82-.78a1 1 0 00-1.32 1.51c.25.23.49.46.73.7s.47.49.69.74a.991.991 0 00.74.34 1.05 1.05 0 00.67-.25 1.021 1.021 0 00.08-1.43zm10.04 13.86a3.439 3.439 0 000-3.58l-1.31-2.17a1.412 1.412 0 01-.19-.96l.39-2.51a3.427 3.427 0 00-1.36-3.31l-2.03-1.5a1.384 1.384 0 01-.54-.81l-.6-2.47a3.391 3.391 0 00-2.5-2.53l-2.45-.6a1.448 1.448 0 01-.81-.54l-1.48-2.06a3.365 3.365 0 00-3.28-1.37l-2.48.39a1.374 1.374 0 01-.95-.19l-2.16-1.32a3.326 3.326 0 00-3.54 0l-2.15 1.32a1.384 1.384 0 01-.95.19l-2.49-.39a3.373 3.373 0 00-3.28 1.37l-1.48 2.05a1.393 1.393 0 01-.8.55l-2.45.6a3.388 3.388 0 00-2.51 2.53l-.59 2.47a1.415 1.415 0 01-.54.81l-2.04 1.5a3.427 3.427 0 00-1.36 3.31l.39 2.51a1.406 1.406 0 01-.18.96l-1.32 2.17a3.484 3.484 0 000 3.58l1.32 2.17a1.406 1.406 0 01.18.96l-.39 2.51a3.427 3.427 0 001.36 3.31l2.04 1.5a1.384 1.384 0 01.54.81l.59 2.47a3.391 3.391 0 002.5 2.53l1.03.25-6.93 15.59a1.043 1.043 0 00.11 1.01.981.981 0 00.92.4l5.57-.67 3.21 4.65a1.01 1.01 0 00.82.43h.1a.994.994 0 00.81-.6l7.08-15.92.89.55a3.326 3.326 0 003.54 0l.93-.57 7.08 15.94a1.009 1.009 0 00.82.6h.09a1 1 0 00.82-.43l3.21-4.65 5.57.68a1.015 1.015 0 001.03-1.42l-6.93-15.6.99-.24a3.391 3.391 0 002.5-2.53l.6-2.47a1.384 1.384 0 01.54-.81l2.03-1.5a3.427 3.427 0 001.36-3.31l-.39-2.51a1.412 1.412 0 01.19-.96zm-34.36 34.88l-2.54-3.69a.99.99 0 00-.94-.42l-4.41.53 6.31-14.2a1.421 1.421 0 01.3.3l1.48 2.06a3.958 3.958 0 00.47.53l-3.32 7.48a1.005 1.005 0 00.91 1.42 1 1 0 00.91-.6l3.31-7.45a3.725 3.725 0 001-.01l2.49-.39a1.086 1.086 0 01.44 0zm29.62-3.58l-4.42-.53a.983.983 0 00-.93.42l-2.55 3.69-6.41-14.45a1.136 1.136 0 01.41.01l2.48.39a3.3 3.3 0 001.04 0l3.31 7.46a1.012 1.012 0 00.91.6.978.978 0 00.41-.09 1.011 1.011 0 00.5-1.33l-3.33-7.51a3.5 3.5 0 00.44-.5l1.48-2.06a1.518 1.518 0 01.34-.33zm3.04-32.35l-1.32 2.17a3.435 3.435 0 00-.45 2.32l.39 2.51a1.419 1.419 0 01-.56 1.37l-2.04 1.5a3.4 3.4 0 00-1.3 1.96l-.6 2.48a1.383 1.383 0 01-1.03 1.04l-2.45.6a3.357 3.357 0 00-1.95 1.32l-1.48 2.05a1.39 1.39 0 01-1.36.57l-2.48-.4a3.42 3.42 0 00-2.3.46l-2.16 1.33a1.374 1.374 0 01-1.46 0l-2.15-1.33a3.4 3.4 0 00-1.78-.5 4.55 4.55 0 00-.52.04l-2.49.4a1.382 1.382 0 01-1.35-.57l-1.49-2.05a3.357 3.357 0 00-1.95-1.32l-2.45-.6a1.383 1.383 0 01-1.03-1.04l-.59-2.48a3.412 3.412 0 00-1.31-1.96l-2.03-1.5a1.426 1.426 0 01-.57-1.37l.4-2.51a3.5 3.5 0 00-.46-2.32l-1.31-2.17a1.409 1.409 0 010-1.48l1.31-2.17a3.5 3.5 0 00.46-2.32l-.39-2.52a1.391 1.391 0 01.56-1.36l2.03-1.5a3.467 3.467 0 001.31-1.97l.59-2.47a1.383 1.383 0 011.03-1.04l2.45-.6a3.412 3.412 0 001.96-1.32l1.48-2.05a1.382 1.382 0 011.35-.57l2.49.39a3.331 3.331 0 002.3-.46l2.15-1.32a1.374 1.374 0 011.46 0l2.16 1.32a3.31 3.31 0 002.3.46l2.48-.39a1.39 1.39 0 011.36.57l1.48 2.05a3.389 3.389 0 001.95 1.32l2.45.6a1.383 1.383 0 011.03 1.04l.6 2.47a3.42 3.42 0 001.3 1.97l2.04 1.5a1.411 1.411 0 01.56 1.36l-.39 2.52a3.435 3.435 0 00.45 2.32l1.32 2.17a1.453 1.453 0 010 1.48zm-10.13-3.88a1.788 1.788 0 00-1.51-1.24l-6.01-.72-2.53-5.55a1.8 1.8 0 00-3.28 0l-2.53 5.55-6.01.72a1.775 1.775 0 00-1.5 1.24 1.818 1.818 0 00.49 1.9l4.44 4.15-1.18 5.99a1.819 1.819 0 001.77 2.18 1.767 1.767 0 00.88-.24l5.28-2.98 5.28 2.98a1.757 1.757 0 001.94-.11 1.807 1.807 0 00.71-1.83l-1.18-5.99 4.44-4.15a1.8 1.8 0 00.5-1.9zm-6.7 4.95a1.006 1.006 0 00-.3.94l1.2 6.13-5.4-3.05a.947.947 0 00-.49-.13.973.973 0 00-.49.13l-5.4 3.05 1.21-6.13a1.031 1.031 0 00-.3-.94l-4.55-4.24 6.15-.74a1.01 1.01 0 00.79-.58l2.59-5.67 2.59 5.67a1.01 1.01 0 00.79.58l6.15.74z" transform="translate(-1381.06 -1269.06)"/></svg><svg id="about-time" data-name="Группа 3" viewBox="0 0 78.38 64" xmlns="http://www.w3.org/2000/svg"><defs><style>.aicls-1{fill:#a3bbc8}.aicls-2{fill:#243f4d;fill-rule:evenodd}</style></defs><circle class="aicls-1" cx="61.505" cy="46.505" r="16.875"/><path class="aicls-2" d="M1135.06 1322.46a4.359 4.359 0 00-2.21-3.23l-11.59-6.45a4.614 4.614 0 00-5.46.74l-4.07 4.03a2.4 2.4 0 01-3.1.24 75.725 75.725 0 01-15.25-15.09 2.362 2.362 0 01.24-3.07l4.07-4.03a4.484 4.484 0 00.75-5.4l-6.52-11.46a4.37 4.37 0 00-3.26-2.19 4.685 4.685 0 00-3.96 1.34l-4.29 4.24c-3.04 3.01-3.2 8.38-.45 15.13 2.62 6.46 7.61 13.53 14.05 19.9s13.59 11.32 20.12 13.91a23.842 23.842 0 008.65 1.93 9.073 9.073 0 006.63-2.37l4.29-4.25a4.6 4.6 0 001.36-3.92zm-2.89 2.4l-.75.75-9.88-5.34a1.09 1.09 0 00-1.47.43 1.066 1.066 0 00.43 1.46l9.32 5.03-1.94 1.92c-2.35 2.32-7.06 2.31-12.94-.03-6.27-2.49-13.15-7.26-19.39-13.44s-11.06-12.98-13.58-19.18c-2.36-5.82-2.37-10.49-.03-12.81l1.94-1.92 1.04 1.89a1.109 1.109 0 00.96.56 1.095 1.095 0 00.95-1.59l-1.35-2.44.75-.74a2.573 2.573 0 011.8-.76 1.841 1.841 0 01.33.03 2.221 2.221 0 011.67 1.11l6.52 11.47a2.363 2.363 0 01-.39 2.83l-1.94 1.91-5.08-9.22a1.1 1.1 0 00-1.47-.43 1.078 1.078 0 00-.44 1.46l5.39 9.77-.53.53a4.5 4.5 0 00-.45 5.87 75.017 75.017 0 007.28 8.32 76.9 76.9 0 008.41 7.21 4.624 4.624 0 005.94-.44l.53-.53 2.46 1.33a1.112 1.112 0 00.52.13 1.089 1.089 0 00.96-.56 1.064 1.064 0 00-.44-1.45l-1.9-1.03 1.93-1.92a2.438 2.438 0 012.86-.39l11.59 6.45a2.244 2.244 0 011.13 1.65 2.517 2.517 0 01-.74 2.11zm-2.14-28.37h-1.23v-9.24a1.085 1.085 0 00-2.17 0v9.24h-5.67l2.02-9a1.069 1.069 0 00-.82-1.28 1.083 1.083 0 00-1.3.81l-2.31 10.31a1.073 1.073 0 00.21.9 1.091 1.091 0 00.85.41h7.01v3.5a1.09 1.09 0 002.18 0v-3.5h1.22a1.075 1.075 0 10.01-2.15zm-13.89 4.58h-7.99c.47-1.23 1.81-2.01 3.73-3.05 2.38-1.29 5.34-2.88 5.34-6.51a5.729 5.729 0 00-11.43 0 1.085 1.085 0 002.17 0 3.566 3.566 0 017.09 0c0 2.19-1.59 3.21-4.21 4.62-2.36 1.28-5.05 2.73-5.05 6.01a1.084 1.084 0 001.09 1.08h9.26a1.075 1.075 0 100-2.15zm22.93 12.62l-2.11.42a26.086 26.086 0 008.04-18.84 26.608 26.608 0 00-48.27-15.11 1.065 1.065 0 00.26 1.5 1.1 1.1 0 001.51-.26 24.436 24.436 0 0144.33 13.87 23.961 23.961 0 01-7.59 17.5l.48-2.4a1.069 1.069 0 00-.85-1.26 1.085 1.085 0 00-1.28.84l-1.16 5.73a1.069 1.069 0 00.3.97 1.107 1.107 0 00.77.31.749.749 0 00.21-.02l5.79-1.14a1.077 1.077 0 10-.43-2.11zm-20.62-40.11a1.073 1.073 0 00-1.08 1.07v2.3a1.085 1.085 0 002.17 0v-2.3a1.082 1.082 0 00-1.09-1.07zm20.83 20.62h-2.31a1.075 1.075 0 100 2.15h2.31a1.075 1.075 0 100-2.15zm-36.33-9.02l-2-1.15a1.091 1.091 0 00-1.48.4 1.064 1.064 0 00.39 1.46l2.01 1.15a1.063 1.063 0 00.54.14 1.081 1.081 0 00.94-.53 1.07 1.07 0 00-.4-1.47zm34.09 19.47l-2.01-1.14a1.075 1.075 0 10-1.08 1.86l2 1.14a1.063 1.063 0 00.54.14 1.081 1.081 0 00.94-.53 1.067 1.067 0 00-.39-1.47zm-7.63-28.16a1.088 1.088 0 00-1.48.39l-1.16 1.98a1.074 1.074 0 00.94 1.61 1.093 1.093 0 00.94-.53l1.16-1.99a1.059 1.059 0 00-.4-1.46zm-19.68 33.72a1.091 1.091 0 00-1.48.4l-1.16 1.98a1.073 1.073 0 00.4 1.47 1.174 1.174 0 00.54.14 1.07 1.07 0 00.94-.54l1.16-1.98a1.073 1.073 0 00-.4-1.47zm27.7-25.78a1.091 1.091 0 00-1.48-.4l-2 1.15a1.07 1.07 0 00-.4 1.47 1.093 1.093 0 00.94.53 1.063 1.063 0 00.54-.14l2.01-1.15a1.056 1.056 0 00.39-1.46zm-34.08 19.47a1.079 1.079 0 00-1.48-.39l-2.01 1.14a1.072 1.072 0 00.55 2 1.063 1.063 0 00.54-.14l2-1.14a1.073 1.073 0 00.4-1.47zm6.78-25.04l-1.16-1.98a1.088 1.088 0 00-1.48-.39 1.059 1.059 0 00-.4 1.46l1.16 1.99a1.1 1.1 0 00.94.54 1.048 1.048 0 00.54-.15 1.07 1.07 0 00.4-1.47zm19.68 33.73l-1.16-1.98a1.091 1.091 0 00-1.48-.4 1.073 1.073 0 00-.4 1.47l1.16 1.98a1.07 1.07 0 00.94.54 1.174 1.174 0 00.54-.14 1.073 1.073 0 00.4-1.47z" transform="translate(-1078 -1269)"/></svg><svg viewBox="0 0 22 9" id="arrow" xmlns="http://www.w3.org/2000/svg"><defs><style>.ajcls-1{fill:#fff;fill-rule:evenodd}</style></defs><path class="ajcls-1" d="M.3 5.472h16.948l-.1 2.857a.292.292 0 000 .41l.172.172a.28.28 0 00.2.086.285.285 0 00.2-.084l4.193-4.211A.292.292 0 0022 4.5a.283.283 0 00-.084-.2L17.723.087a.289.289 0 00-.407 0l-.172.173a.287.287 0 00-.084.2.278.278 0 00.084.2l.113 2.865H.292A.3.3 0 000 3.82v1.37a.292.292 0 00.3.282z"/></svg><svg viewBox="0 0 6.1 10.97" id="arrow-right" xmlns="http://www.w3.org/2000/svg"><defs><style>.akcls-1{fill:#262626;fill-rule:evenodd}</style></defs><path class="akcls-1" d="M.55 10.97a.53.53 0 01-.41-.19.6.6 0 01-.15-.4.631.631 0 01.17-.43l4.55-4.47L.16 1A.607.607 0 01-.01.58.629.629 0 01.14.17a.559.559 0 01.8-.02l4.98 4.9.01.01a.657.657 0 01.12.17.7.7 0 01.05.25.742.742 0 01-.05.25.61.61 0 01-.12.16c0 .01-.01.01-.01.02l-4.98 4.9a.589.589 0 01-.39.16z"/></svg><svg xmlns:svgjs="http://svgjs.com/svgjs" viewBox="0 0.043 20 17.915" id="basket-icon" xmlns="http://www.w3.org/2000/svg"><svg width="20" height="18" viewBox="2 1.998 18.956 16.98"><path paint-order="stroke fill markers" fill-rule="evenodd" d="M7.526 18.978c-.536 0-1.063-.21-1.461-.607a2.066 2.066 0 01-.453-2.26 2.068 2.068 0 011.915-1.28h.006c.55 0 1.07.214 1.46.602.393.394.609.913.609 1.467.002.84-.5 1.593-1.277 1.917-.258.108-.53.16-.799.16zm.007-2.963h-.004a.887.887 0 00-.628 1.518.89.89 0 10.632-1.518zm8.385 2.963c-.537 0-1.064-.21-1.461-.607a2.065 2.065 0 01-.452-2.26 2.065 2.065 0 011.913-1.28c.546-.04 1.08.218 1.468.603.392.393.607.912.607 1.466a2.064 2.064 0 01-1.274 1.917c-.26.108-.532.16-.8.16zm.006-2.963h-.001c-.331.032-.685.215-.823.548a.89.89 0 10.824-.548zm-11.279.163a.592.592 0 01-.536-.843c.579-1.24 1.627-1.973 3.054-2.15L6.108 7.792a.593.593 0 011.163-.227l1.091 5.578h9.423l1.807-6.771H6.29A4.354 4.354 0 012.007 2.68a.591.591 0 111.171-.175 3.165 3.165 0 003.115 2.682h14.07a.592.592 0 01.573.745l-2.123 7.956a.594.594 0 01-.573.44H7.885a.044.044 0 00-.023 0c-1.33 0-2.205.493-2.68 1.51a.593.593 0 01-.537.34z"/></svg></svg><svg viewBox="0 0 22 9" id="bg-arrow-svg" xmlns="http://www.w3.org/2000/svg"><defs><style>.amcls-1{fill:#fff;fill-rule:evenodd}</style></defs><path class="amcls-1" d="M.3 5.472h16.948l-.1 2.857a.292.292 0 000 .41l.172.172a.28.28 0 00.2.086.285.285 0 00.2-.084l4.193-4.211A.292.292 0 0022 4.5a.283.283 0 00-.084-.2L17.723.087a.289.289 0 00-.407 0l-.172.173a.287.287 0 00-.084.2.278.278 0 00.084.2l.113 2.865H.292A.3.3 0 000 3.82v1.37a.292.292 0 00.3.282z"/></svg><svg viewBox="0 0 22 9" id="bg-arrow2-svg" xmlns="http://www.w3.org/2000/svg"><defs><style>.ancls-1{fill:#436372;fill-rule:evenodd}</style></defs><path class="ancls-1" d="M.3 5.47h16.948l-.1 2.86a.279.279 0 00-.084.2.3.3 0 00.084.21l.172.17a.276.276 0 00.408 0L21.92 4.7a.283.283 0 00.084-.2.307.307 0 00-.084-.21L17.728.08a.3.3 0 00-.408 0l-.172.17a.3.3 0 00-.084.21.3.3 0 00.084.2l.113 2.86H.292a.3.3 0 00-.292.3v1.37a.288.288 0 00.3.28z"/></svg><svg viewBox="0 0 13.688 13.16" id="blog-ac" xmlns="http://www.w3.org/2000/svg"><defs><style>.aocls-1{fill:#436372;fill-rule:evenodd}</style></defs><path class="aocls-1" d="M13.257 13.17H.424a.426.426 0 01-.428-.42 6.85 6.85 0 0113.689 0 .426.426 0 01-.428.42zm-12.39-.83h11.947a6.011 6.011 0 00-11.947 0zM6.841 7a3.5 3.5 0 113.636-3.5A3.574 3.574 0 016.841 7zm0-6.17a2.672 2.672 0 102.78 2.67A2.732 2.732 0 006.841.83z"/></svg><svg viewBox="0 0 8.13 15.43" id="blog-fb" xmlns="http://www.w3.org/2000/svg"><defs><style>.apcls-1{fill:#a1a1a1;fill-rule:evenodd}</style></defs><path id="apPath_1" data-name="Path 1" class="apcls-1" d="M1069.19 1899.12c.41 0 .83.03 1.24.05.27.01.54.04.79.07l-.02 2.49h-.2c-.27 0-.54-.01-.82-.01-.2 0-.4.01-.61.01a1.041 1.041 0 00-1.18 1.09c-.02.6-.03 1.9-.03 1.97.03 0 .68.01 1.34.01.32 0 .64 0 .87-.01h.53c-.13.96-.26 1.87-.39 2.8h-2.35l-.06 6.97h-2.89l.06-6.99h-2.37l.02-2.77h2.38v-.21c.01-.56 0-1.12.02-1.68a7.581 7.581 0 01.09-1.06 3.145 3.145 0 011.27-2.08 3.6 3.6 0 012.08-.64c.08 0 .15-.01.23-.01z" transform="translate(-1063.09 -1899.13)"/></svg><svg viewBox="0 0 18.03 11.41" id="blog-go" xmlns="http://www.w3.org/2000/svg"><defs><style>.aqcls-1{fill:#a1a1a1;fill-rule:evenodd}</style></defs><path id="aqUnion_1" data-name="Union 1" class="aqcls-1" d="M1170.27 1912.73a5.653 5.653 0 01-5.24-4.49 5.314 5.314 0 01-.11-1.54 5.573 5.573 0 011.29-3.25 5.683 5.683 0 013.07-1.96 4.271 4.271 0 01.94-.14c.18-.01.36-.02.55-.02a5.311 5.311 0 012.69.74 6.276 6.276 0 011.01.74c-.57.56-1.11 1.11-1.67 1.66a3.053 3.053 0 00-1.67-.81 4.051 4.051 0 00-.48-.04 3.429 3.429 0 00-3.29 2.67 2.977 2.977 0 00-.08 1.03 3.429 3.429 0 002.33 2.97 3.365 3.365 0 001 .15c.08 0 .15-.01.23-.01a3.427 3.427 0 001.67-.53 2.65 2.65 0 001.13-1.72h-3.05c0-.08.01-1.5.01-2.2l.01-.09h5.36a6.171 6.171 0 01-1.01 4.81 5.029 5.029 0 01-2.82 1.84 6.2 6.2 0 01-1.54.2c-.11 0-.22-.01-.33-.01zm10.59-3.22h-1.51v-.06l.02-1.93h-1.99v-.06l.01-1.44v-.06h1.99l.01-1.93.01-.06h1.55v.06l-.01 1.93h1.99v.06l-.01 1.44v.06h-1.99l-.02 1.93v.06h-.05z" transform="translate(-1164.91 -1901.34)"/></svg><svg viewBox="0 0 13.63 13.66" id="blog-in" xmlns="http://www.w3.org/2000/svg"><defs><style>.arcls-1{fill:#a1a1a1;fill-rule:evenodd}</style></defs><path id="arUnion_2" data-name="Union 2" class="arcls-1" d="M1133.34 1913.46a3.431 3.431 0 01-2.72-2.98 38.588 38.588 0 01.13-7.67 3.483 3.483 0 012.98-2.65 27.381 27.381 0 013.42-.15c1.28 0 2.56.03 3.33.07a3.78 3.78 0 012.5 1.02 3.638 3.638 0 011.09 2.33 43.2 43.2 0 01-.15 7.35 3.485 3.485 0 01-3.02 2.73 32.586 32.586 0 01-3.76.15 23.5 23.5 0 01-3.8-.2zm.73-12.12a2.349 2.349 0 00-2.18 2.06 45.652 45.652 0 00-.05 6.9 2.224 2.224 0 001.69 1.93 20.971 20.971 0 003.67.2c1.43 0 2.84-.05 3.37-.1a2.341 2.341 0 002.18-2.07 48.648 48.648 0 00.09-6.71 2.3 2.3 0 00-2.05-2.18 30.906 30.906 0 00-3.41-.13c-1.36 0-2.72.04-3.31.1zm-.25 5.5a3.517 3.517 0 013.53-3.5 3.459 3.459 0 013.47 3.5 3.53 3.53 0 01-3.53 3.5 3.466 3.466 0 01-3.47-3.5zm1.23-.03a2.252 2.252 0 002.23 2.29h.02a2.284 2.284 0 002.28-2.24 2.237 2.237 0 00-2.22-2.29h-.02a2.293 2.293 0 00-2.29 2.24zm5.12-3.61a.824.824 0 01.82-.82h.01a.815.815 0 01.81.82.826.826 0 01-.83.82.815.815 0 01-.81-.82z" transform="translate(-1130.5 -1900)"/></svg><svg viewBox="0 0 18 12.37" id="blog-mail" xmlns="http://www.w3.org/2000/svg"><defs><style>.ascls-1{fill:#436372;fill-rule:evenodd}</style></defs><path class="ascls-1" d="M16.71 12.36H1.29A1.262 1.262 0 010 11.13v-9.9A1.27 1.27 0 011.29-.01h15.42A1.27 1.27 0 0118 1.23v9.9a1.262 1.262 0 01-1.29 1.23zM1.29.82a.417.417 0 00-.43.41v9.9a.423.423 0 00.43.41h15.42a.423.423 0 00.43-.41v-9.9a.417.417 0 00-.43-.41H1.29zM9 6.41a1.319 1.319 0 01-.74-.23L.48.94a.4.4 0 01-.1-.57.428.428 0 01.59-.1l7.78 5.24a.454.454 0 00.5 0L17.03.27a.428.428 0 01.59.1.4.4 0 01-.1.57L9.74 6.18a1.319 1.319 0 01-.74.23zm8.32 5.71a.423.423 0 01-.3-.12L10.4 5.64a.423.423 0 010-.59.448.448 0 01.61 0l6.61 6.37a.394.394 0 010 .58.423.423 0 01-.3.12zm-16.64 0a.423.423 0 01-.3-.12.394.394 0 010-.58l6.61-6.37a.448.448 0 01.61 0 .423.423 0 010 .59L.98 12a.423.423 0 01-.3.12z"/></svg><svg viewBox="0 0 18 14.81" id="blog-message" xmlns="http://www.w3.org/2000/svg"><defs><style>.atcls-1{fill:#436372;fill-rule:evenodd}</style></defs><path class="atcls-1" d="M3 14.81a.415.415 0 01-.16-.03.42.42 0 01-.27-.38v-2.07H1.29A1.262 1.262 0 010 11.1V1.23A1.262 1.262 0 011.29 0h15.42A1.262 1.262 0 0118 1.23v9.87a1.262 1.262 0 01-1.29 1.23H5.77L3.3 14.69a.423.423 0 01-.3.12zM1.29.82a.423.423 0 00-.43.41v9.87a.423.423 0 00.43.41H3a.417.417 0 01.43.41v1.49l1.86-1.78a.407.407 0 01.3-.12h11.12a.423.423 0 00.43-.41V1.23a.423.423 0 00-.43-.41H1.29zm4.77 5.34a.646.646 0 11-.65-.61.63.63 0 01.65.61zm3.58 0a.64.64 0 01-1.28 0A.619.619 0 019 5.55a.626.626 0 01.64.61zm3.35 0a.646.646 0 11-.65-.61.63.63 0 01.65.61z"/></svg><svg viewBox="0 0 17.03 17" id="blog-search" xmlns="http://www.w3.org/2000/svg"><defs><style>.aucls-1{fill:#094074;fill-rule:evenodd}</style></defs><path class="aucls-1" d="M16.44 17.014a.6.6 0 01-.42-.174l-5.3-5.3a6.515 6.515 0 11.84-.839l5.3 5.3a.6.6 0 010 .839.6.6 0 01-.42.174zM6.54 1.181a5.344 5.344 0 105.35 5.344 5.351 5.351 0 00-5.35-5.344z"/></svg><svg viewBox="0 0 14.31 11.62" id="blog-tw" xmlns="http://www.w3.org/2000/svg"><defs><style>.avcls-1{fill:#a1a1a1;fill-rule:evenodd}</style></defs><path id="avPath_2" data-name="Path 2" class="avcls-1" d="M1109.69 1902.28c-.11.16-.21.3-.33.45a5.7 5.7 0 01-1.07 1.01l-.05.09a8.22 8.22 0 01-.07 1.31 8.818 8.818 0 01-.77 2.61 8.712 8.712 0 01-1.6 2.3 7.864 7.864 0 01-4.05 2.25 8.967 8.967 0 01-1.64.2h-.26a8.172 8.172 0 01-4.42-1.27l-.07-.04a5.322 5.322 0 00.69.04 6.049 6.049 0 002.25-.44 5.834 5.834 0 001.4-.82 2.9 2.9 0 01-2.71-2.03 3.287 3.287 0 00.54.05 2.82 2.82 0 00.71-.09l.05-.02a2.9 2.9 0 01-2.32-2.9 2.914 2.914 0 001.31.35 2.914 2.914 0 01-1.2-1.78 2.877 2.877 0 01.34-2.12 8.311 8.311 0 006.02 3.07c-.02-.12-.03-.22-.05-.33a2.8 2.8 0 01.45-1.91 2.853 2.853 0 011.99-1.33 3.439 3.439 0 01.54-.04 2.833 2.833 0 012.03.86.139.139 0 00.1.05.09.09 0 00.05-.01 5.547 5.547 0 001.71-.65l.04-.02a2.919 2.919 0 01-1.25 1.6 5.859 5.859 0 001.64-.44z" transform="translate(-1095.38 -1900.88)"/></svg><svg id="calendar" version="1.1" viewBox="0 0 64 64" xml:space="preserve" xmlns="http://www.w3.org/2000/svg"><style>.awst0{fill:#134563}</style><g id="awIcon-Calendar" transform="translate(30 478)"><path class="awst0" d="M19.6-424h-35.2c-2.4 0-4.4-2-4.4-4.4v-32.3c0-2.4 1.6-4.4 3.7-4.4h2.2v2.9h-2.2c-.3 0-.7.6-.7 1.5v32.3c0 .8.7 1.5 1.5 1.5h35.2c.8 0 1.5-.7 1.5-1.5v-32.3c0-.9-.5-1.5-.7-1.5h-2.2v-2.9h2.2c2 0 3.7 2 3.7 4.4v32.3C24-426 22-424 19.6-424" id="awFill-133"/><path class="awst0" d="M-9.7-459.2c-.8 0-1.5-.7-1.5-1.5v-5.9c0-.8.7-1.5 1.5-1.5s1.5.7 1.5 1.5v5.9c-.1.8-.7 1.5-1.5 1.5" id="awFill-134"/><path class="awst0" d="M13.7-459.2c-.8 0-1.5-.7-1.5-1.5v-5.9c0-.8.7-1.5 1.5-1.5s1.5.7 1.5 1.5v5.9c0 .8-.7 1.5-1.5 1.5" id="awFill-135"/><path class="awst0" id="awFill-136" d="M-5.3-465.1H9.3v3H-5.3z"/><path class="awst0" id="awFill-137" d="M-17.1-456.3h38.2v3h-38.2z"/><path class="awst0" id="awFill-138" d="M15.2-450.4h2.9v2.9h-2.9z"/><path class="awst0" id="awFill-139" d="M9.3-450.4h3v2.9h-3z"/><path class="awst0" id="awFill-140" d="M3.5-450.4h2.9v2.9H3.5z"/><path class="awst0" id="awFill-141" d="M-2.4-450.4H.5v2.9h-2.9z"/><path class="awst0" id="awFill-142" d="M-8.3-450.4h3v2.9h-3z"/><path class="awst0" id="awFill-143" d="M15.2-444.5h2.9v2.9h-2.9z"/><path class="awst0" id="awFill-144" d="M9.3-444.5h3v2.9h-3z"/><path class="awst0" id="awFill-145" d="M3.5-444.5h2.9v2.9H3.5z"/><path class="awst0" id="awFill-146" d="M-2.4-444.5H.5v2.9h-2.9z"/><path class="awst0" id="awFill-147" d="M-8.3-444.5h3v2.9h-3z"/><path class="awst0" id="awFill-148" d="M-14.1-444.5h2.9v2.9h-2.9z"/><path class="awst0" id="awFill-149" d="M15.2-438.7h2.9v3h-2.9z"/><path class="awst0" id="awFill-150" d="M9.3-438.7h3v3h-3z"/><path class="awst0" id="awFill-151" d="M3.5-438.7h2.9v3H3.5z"/><path class="awst0" id="awFill-152" d="M-2.4-438.7H.5v3h-2.9z"/><path class="awst0" id="awFill-153" d="M-8.3-438.7h3v3h-3z"/><path class="awst0" id="awFill-154" d="M-14.1-438.7h2.9v3h-2.9z"/><path class="awst0" id="awFill-155" d="M9.3-432.8h3v2.9h-3z"/><path class="awst0" id="awFill-156" d="M3.5-432.8h2.9v2.9H3.5z"/><path class="awst0" id="awFill-157" d="M-2.4-432.8H.5v2.9h-2.9z"/><path class="awst0" id="awFill-158" d="M-8.3-432.8h3v2.9h-3z"/><path class="awst0" id="awFill-159" d="M-14.1-432.8h2.9v2.9h-2.9z"/></g></svg><svg viewBox="0 0 22 20" id="card-basket" xmlns="http://www.w3.org/2000/svg"><defs><style>.axcls-1{fill:#fff;fill-rule:evenodd}</style></defs><path id="axcard-basket" data-name="Forma 1" class="axcls-1" d="M800.814 1564.63h2.333l3.323 12.04a.812.812 0 00.787.59h10.214a.821.821 0 00.746-.48l3.717-8.56a.836.836 0 00-.068-.78.813.813 0 00-.678-.37H809.9a.82.82 0 000 1.64h10.04l-3.011 6.92h-9.062l-3.323-12.03a.808.808 0 00-.787-.6h-2.943a.815.815 0 000 1.63zm5.67 18.37a1.85 1.85 0 10-1.845-1.85 1.85 1.85 0 001.845 1.85zm11.53 0h.135a1.907 1.907 0 10-.135 0z" transform="translate(-800 -1563)"/></svg><svg viewBox="0 0 22 18" id="card-like" xmlns="http://www.w3.org/2000/svg"><defs><style>.aycls-1{fill:#a3bbc8;fill-rule:evenodd}</style></defs><path id="aycard-like" data-name="Forma 1" class="aycls-1" d="M882.99 1569.82a6.208 6.208 0 00-1.849-4.1A5.871 5.871 0 00877 1564c-2.311 0-3.948 1.78-4.827 2.74a2.156 2.156 0 01-.156.17l-.083-.09c-.8-.92-2.476-2.82-4.938-2.82a5.873 5.873 0 00-4.139 1.72 6.208 6.208 0 00-1.849 4.1 6.845 6.845 0 001.271 4.34 29.307 29.307 0 004.763 4.75c1.705 1.41 3.95 3.09 4.965 3.09 1.032 0 3.269-1.68 4.965-3.09a29.234 29.234 0 004.746-4.75 6.935 6.935 0 001.272-4.34zm-2.376 3.61a27 27 0 01-4.431 4.42c-2.406 2-3.831 2.79-4.172 2.82-.342-.03-1.77-.83-4.188-2.84a26.78 26.78 0 01-4.437-4.4 5.6 5.6 0 01-1.054-3.54 4.807 4.807 0 014.666-4.57c1.863 0 3.216 1.54 3.943 2.37a1.52 1.52 0 001.059.76 1.731 1.731 0 001.151-.81c.794-.87 2.122-2.32 3.851-2.32a4.807 4.807 0 014.666 4.57 5.528 5.528 0 01-1.054 3.54z" transform="translate(-861 -1564)"/></svg><svg viewBox="0 0 20 20" id="card-search" xmlns="http://www.w3.org/2000/svg"><defs><style>.azcls-1{fill:#a3bbc8;fill-rule:evenodd}</style></defs><path id="azcard-search" data-name="Forma 1" class="azcls-1" d="M759.45 1579.8l-4.588-4.59a8.827 8.827 0 01-2.651 2.65l4.588 4.59a1.874 1.874 0 002.651-2.65zm-4.45-9.3a7.5 7.5 0 10-7.5 7.5 7.5 7.5 0 007.5-7.5zm-7.5 5.62a5.625 5.625 0 115.625-5.62 5.628 5.628 0 01-5.625 5.62zm-4.375-5.62h1.25a3.135 3.135 0 013.125-3.13v-1.25a4.386 4.386 0 00-4.375 4.38z" transform="translate(-740 -1563)"/></svg><svg viewBox="0 0 49.13 43.84" id="credit-card" xmlns="http://www.w3.org/2000/svg"><defs><style>.bacls-1{fill:#a3bbc8;fill-rule:evenodd}</style></defs><path id="bacredit-card" class="bacls-1" d="M1444.43 1042.32a.83.83 0 00-.84.83v8.27a2.164 2.164 0 01-2.16 2.16h-39.34a2.164 2.164 0 01-2.16-2.16v-11.92h27.29a.84.84 0 100-1.68h-27.29v-5.47h9.87a.828.828 0 00.83-.83.837.837 0 00-.83-.84h-9.87v-2.88a2.166 2.166 0 012.16-2.17h25.13a.835.835 0 100-1.67h-25.13a3.839 3.839 0 00-3.83 3.84v23.62a3.837 3.837 0 003.83 3.83h39.34a3.837 3.837 0 003.83-3.83v-8.27a.828.828 0 00-.83-.83zm-17.21-11.64H1413a.837.837 0 00-.83.84.828.828 0 00.83.83h14.22a.837.837 0 00.84-.83.845.845 0 00-.84-.84zm-9.24 11.56h-14.27a.835.835 0 000 1.67h14.27a.835.835 0 100-1.67zm-6.08 3.99h-8.19a.835.835 0 000 1.67h8.19a.835.835 0 000-1.67zm34.63-13.61a.832.832 0 00.84-.84v-4.77a3.038 3.038 0 00-2.39-2.97v-6.02a6.6 6.6 0 10-13.19 0v6.02a3.053 3.053 0 00-2.4 2.97v10.75a3.045 3.045 0 003.04 3.04h11.9a3.039 3.039 0 003.04-3.04v-3.19a.835.835 0 00-1.67 0v3.19a1.379 1.379 0 01-1.37 1.37h-11.9a1.379 1.379 0 01-1.37-1.37v-10.75a1.379 1.379 0 011.37-1.37h11.9a1.379 1.379 0 011.37 1.37v4.77a.83.83 0 00.83.84zm-3.23-8.65h-9.84v-5.95a4.92 4.92 0 119.84 0v5.95zm-4.92 4.32a3.092 3.092 0 00-.83 6.07v2.04a.83.83 0 00.83.84.839.839 0 00.84-.84v-2.04a3.094 3.094 0 00-.84-6.07zm0 4.52a1.425 1.425 0 111.42-1.43 1.428 1.428 0 01-1.42 1.43z" transform="translate(-1398.25 -1011.41)"/></svg><svg viewBox="0 0 49.126 29.35" id="delivery-truck" xmlns="http://www.w3.org/2000/svg"><defs><style>.bbcls-1{fill:#a3bbc8;fill-rule:evenodd}</style></defs><path id="bbdelivery-truck" class="bbcls-1" d="M812.816 1025.33h-6.126a.79.79 0 000 1.58h6.126a.79.79 0 000-1.58zm.524 11.01h-5.6a.785.785 0 100 1.57h5.6a.785.785 0 100-1.57zm-2.094-4.72H804.6a.79.79 0 000 1.58h6.65a.79.79 0 00-.004-1.58zm0 11.01h-.646a.785.785 0 100 1.57h.644a.785.785 0 10.002-1.57zm-3.263 0H804.6a.785.785 0 100 1.57h3.387a.785.785 0 10-.004-1.57zm36.86-19.86h-6.657v-1.42a.784.784 0 00-.786-.78h-12.175a.785.785 0 100 1.57h11.39v17.22a.786.786 0 101.571 0v-15.02h6.657a6.519 6.519 0 016.509 6.52v13.29h-2a4.974 4.974 0 00-9.824 0h-1.345v-1.12a.786.786 0 10-1.571 0v1.12h-8.336a4.974 4.974 0 00-9.823 0h-1.634v-22.01h5.261a.785.785 0 100-1.57h-6.046a.783.783 0 00-.785.78v23.59a.791.791 0 00.785.79h2.419a4.974 4.974 0 009.823 0h11.252a4.974 4.974 0 009.824 0h2.782a.791.791 0 00.785-.79v-14.08a8.094 8.094 0 00-8.076-8.09zm-21.475 25.58a3.41 3.41 0 113.4-3.41 3.411 3.411 0 01-3.4 3.41zm21.075 0a3.411 3.411 0 01-3.4-3.41 3.4 3.4 0 113.4 3.41zm.4-22.44h-4.3a.791.791 0 00-.785.79v7.39a.791.791 0 00.785.79H849a.792.792 0 00.786-.79v-3.23a4.949 4.949 0 00-4.943-4.95zm3.367 7.39h-6.882v-5.81h3.515a3.371 3.371 0 013.367 3.37v2.44zm-24.842 9.61a2.03 2.03 0 102.024 2.03 2.029 2.029 0 00-2.024-2.03zm0 2.49a.46.46 0 01-.455-.46.455.455 0 01.909 0 .46.46 0 01-.454.46zm21.075-2.49a2.03 2.03 0 102.025 2.03 2.03 2.03 0 00-2.025-2.03zm0 2.49a.46.46 0 01-.454-.46.454.454 0 01.908 0 .46.46 0 01-.454.46zm4.552-8.37a.783.783 0 00-.785.78v1.99a.786.786 0 101.571 0v-1.99a.784.784 0 00-.781-.78z" transform="translate(-803.812 -1020.56)"/></svg><svg viewBox="0 0 1792 1792" id="filter-icon" xmlns="http://www.w3.org/2000/svg"><path d="M1595 295q17 41-14 70l-493 493v742q0 42-39 59-13 5-25 5-27 0-45-19l-256-256q-19-19-19-45V858L211 365q-31-29-14-70 17-39 59-39h1280q42 0 59 39z"/></svg><svg viewBox="0 0 52 51" id="grid-icon" xmlns="http://www.w3.org/2000/svg"><path d="M0 0h23v23H0zM29 0h23v23H29zM0 28h23v23H0zM29 28h23v23H29z"/></svg><svg xmlns:svgjs="http://svgjs.com/svgjs" viewBox="0 0.742 19 16.515" id="like-icon" xmlns="http://www.w3.org/2000/svg"><svg width="19" height="18" viewBox="1.983 1.721 17.859 15.523"><path paint-order="stroke fill markers" fill-rule="evenodd" d="M10.913 17.244a.707.707 0 01-.28-.056c-.353-.15-8.65-3.75-8.65-10.76.091-2.65 2.207-4.707 4.818-4.707 1.743 0 3.266.918 4.112 2.31a4.796 4.796 0 014.112-2.31c2.61 0 4.725 2.058 4.817 4.684 0 7.034-8.297 10.634-8.65 10.783a.71.71 0 01-.28.056zM6.8 3.106c-1.847 0-3.343 1.47-3.408 3.346 0 5.408 6.125 8.663 7.52 9.335 1.395-.672 7.52-3.93 7.52-9.358-.065-1.853-1.563-3.323-3.408-3.323s-3.342 1.47-3.408 3.346a.7.7 0 01-.704.67.7.7 0 01-.705-.67C10.143 4.576 8.646 3.106 6.8 3.106z"/></svg></svg><svg viewBox="0 0 19 14" id="list-icon" xmlns="http://www.w3.org/2000/svg"><path d="M.5 9h4V5h-4v4zm0 5h4v-4h-4v4zm0-10h4V0h-4v4zm5 5h12V5h-12v4zm0 5h12v-4h-12v4zm0-14v4h12V0h-12z" fill-rule="evenodd"/></svg><svg xmlns:svgjs="http://svgjs.com/svgjs" viewBox="0 0.5 21 21" id="menu-icon" xmlns="http://www.w3.org/2000/svg"><svg width="21" height="22" viewBox="2 1.589 20.029 20.029"><path paint-order="stroke fill markers" fill-rule="evenodd" d="M4.146 5.88A2.144 2.144 0 012 3.736c0-1.187.96-2.146 2.146-2.146 1.187 0 2.146.959 2.146 2.146 0 1.186-.96 2.146-2.146 2.146zm0 7.87A2.145 2.145 0 012 11.603c0-1.186.96-2.145 2.146-2.145a2.145 2.145 0 110 4.292zm0 7.868A2.144 2.144 0 012 19.472c0-1.187.96-2.146 2.146-2.146 1.187 0 2.146.96 2.146 2.146 0 1.187-.96 2.146-2.146 2.146zM12.014 5.88a2.144 2.144 0 01-2.146-2.146c0-1.187.96-2.146 2.146-2.146 1.187 0 2.146.959 2.146 2.146a2.144 2.144 0 01-2.146 2.146zm0 7.869a2.145 2.145 0 01-2.146-2.147c0-1.186.96-2.145 2.146-2.145 1.187 0 2.146.959 2.146 2.145a2.145 2.145 0 01-2.146 2.147zm0 7.868a2.144 2.144 0 01-2.146-2.146c0-1.187.96-2.146 2.146-2.146 1.187 0 2.146.96 2.146 2.146a2.144 2.144 0 01-2.146 2.146zM19.883 5.88a2.144 2.144 0 01-2.146-2.146c0-1.187.96-2.146 2.146-2.146 1.187 0 2.146.959 2.146 2.146 0 1.186-.96 2.146-2.146 2.146zm0 7.869a2.145 2.145 0 01-2.146-2.147c0-1.186.96-2.145 2.146-2.145a2.145 2.145 0 110 4.292zm0 7.868a2.144 2.144 0 01-2.146-2.146c0-1.187.96-2.146 2.146-2.146 1.187 0 2.146.96 2.146 2.146 0 1.187-.96 2.146-2.146 2.146z"/></svg></svg><svg viewBox="0 0 22 25" id="play" xmlns="http://www.w3.org/2000/svg"><path fill-rule="evenodd" d="M20.684 14.74L4.64 24.536a3.236 3.236 0 01-3.062.144c-.972-.47-1.579-1.387-1.579-2.385V2.7c0-.999.607-1.917 1.579-2.386A3.24 3.24 0 014.64.457l16.044 9.798c.822.502 1.315 1.343 1.315 2.241 0 .9-.493 1.741-1.315 2.244z"/></svg><svg xmlns:svgjs="http://svgjs.com/svgjs" viewBox="0 0 17 17" id="search-icon" xmlns="http://www.w3.org/2000/svg"><svg width="17" height="17" viewBox="1.705 1.996 15.296 15.296"><path paint-order="stroke fill markers" fill-rule="evenodd" d="M4.702 8.076c.356-.065.68.13.746.484a2.65 2.65 0 00.78 1.49c.42.388.941.677 1.493.776.325.066.552.39.487.743a.643.643 0 01-.714.516 4.2 4.2 0 01-2.143-1.13 4.164 4.164 0 01-1.136-2.137c-.065-.354.128-.676.487-.742zm3.278-6.08c3.465 0 6.279 2.8 6.279 6.257 0 .93-.203 1.812-.568 2.604l2.336 2.036c1.703 1.747.746 3.266.294 3.717-.422.454-1.994 1.415-3.73-.292l-2.06-2.35c-.78.345-1.64.539-2.548.539-3.468 0-6.278-2.802-6.278-6.257 0-3.456 2.807-6.254 6.275-6.254zm5.546 13.517c.293.324 1.126.867 1.88.226.21-.176.634-1.068-.227-1.873l-2.162-1.88a6.269 6.269 0 01-1.363 1.34l1.872 2.187zM7.98 13.201c2.742 0 4.966-2.216 4.966-4.948S10.722 3.305 7.98 3.305 3.015 5.521 3.015 8.253s2.22 4.948 4.965 4.948z"/></svg></svg><svg viewBox="0 0 15 11" id="team-arrow" xmlns="http://www.w3.org/2000/svg"><defs><style>.bjcls-1{fill:#fff;fill-rule:evenodd}</style></defs><path class="bjcls-1" d="M8.931 11.01a.673.673 0 00.425-.16l5.434-4.92c.007 0 .013-.01.019-.01l.031-.03v-.01a.567.567 0 00.138-.47.6.6 0 00-.155-.31l-.033-.03L9.355.16a.65.65 0 00-.874.02.578.578 0 00.024.84l4.311 3.89H.631a.608.608 0 00-.617.59.6.6 0 00.617.59h12.186l-4.311 3.9a.566.566 0 00-.024.83.608.608 0 00.449.19z"/></svg><svg viewBox="0 0 49.125 49.13" id="time" xmlns="http://www.w3.org/2000/svg"><defs><style>.bkcls-1{fill:#a3bbc8;fill-rule:evenodd}</style></defs><path class="bkcls-1" d="M45.406 11.58a.937.937 0 00-1.592.99 22.684 22.684 0 01-32.86 30.14.938.938 0 00-1.125 1.5 24.559 24.559 0 0035.577-32.63zm-23.03 21.94h-7.55l4.743-4.75a12.68 12.68 0 003.744-9.03 5.844 5.844 0 10-11.688 0 .938.938 0 001.875 0 3.969 3.969 0 117.938 0 10.836 10.836 0 01-3.195 7.71l-6.344 6.34a.949.949 0 00-.2 1.03.93.93 0 00.866.57h9.813a.935.935 0 10-.002-1.87zm15.039-6.44h-2.6v-1.52a.938.938 0 00-1.875 0v1.52h-5.286l5.286-8.85v4.21a.938.938 0 101.875 0v-7.62a.957.957 0 00-.456-.8.94.94 0 00-1.286.33l-7.875 13.19a.933.933 0 00-.011.94.951.951 0 00.816.48h6.938v5.5a.938.938 0 001.875 0v-5.5h2.6a.94.94 0 00-.001-1.88zm5.33-22.63a.938.938 0 10-1.875.04l.042 1.75A24.556 24.556 0 007.363 42.09a.93.93 0 00.656.27.92.92 0 00.669-.28.942.942 0 00-.013-1.33A22.679 22.679 0 0124.557 1.88a22.745 22.745 0 0115.107 5.77l-1.843.04a.935.935 0 00.022 1.87h.023l4.06-.09a.934.934 0 00.915-.96z"/></svg><svg viewBox="0 0 128 128" id="user" xmlns="http://www.w3.org/2000/svg"><path d="M30 49c0 18.7 15.3 34 34 34s34-15.3 34-34-15.3-34-34-34-34 15.3-34 34zm60 0c0 14.3-11.7 26-26 26S38 63.3 38 49s11.7-26 26-26 26 11.7 26 26zM24.4 119.4C35 108.8 49 103 64 103s29 5.8 39.6 16.4l5.7-5.7C97.2 101.7 81.1 95 64 95s-33.2 6.7-45.3 18.7l5.7 5.7z"/></svg><svg viewBox="0 0 22 25" id="video-play" xmlns="http://www.w3.org/2000/svg"><defs><style>.bmcls-1{fill:#fff;fill-rule:evenodd}</style></defs><path id="bmForm_24" data-name="Form 24" class="bmcls-1" d="M970.684 3900.74l-16.044 9.8a3.228 3.228 0 01-3.062.14 2.685 2.685 0 01-1.579-2.39v-19.59a2.685 2.685 0 011.579-2.39 3.258 3.258 0 013.062.15l16.044 9.79a2.666 2.666 0 011.316 2.25 2.638 2.638 0 01-1.316 2.24z" transform="translate(-950 -3886)"/></svg></svg>